<svg id="Capa_1" data-name="Capa 1" xmlns="http://www.w3.org/2000/svg" viewBox="0 0 70.81 60.4"><path class="cls-1" d="M1133.43,279q-5-4.87-13.87-4.88a18.49,18.49,0,0,0-9.63,3.12,38.19,38.19,0,0,0-6.9,5.34,38.19,38.19,0,0,0-6.9-5.34,18.49,18.49,0,0,0-9.63-3.12q-8.85,0-13.87,4.88t-5,13.47q0,6,4.43,12.37a29.12,29.12,0,0,0,4.56,5.34L1101,333.71a3.16,3.16,0,0,0,4.16,0l24.35-23.56a34.15,34.15,0,0,0,4.81-5.73q4.17-6.12,4.17-12Q1138.44,283.86,1133.43,279Zm-30.11,8.94a4.61,4.61,0,1,1-4.61,4.61A4.6,4.6,0,0,1,1103.32,287.91Zm17.22,5.27L1110,303.69a.59.59,0,0,1,0,.13v10.53a6.73,6.73,0,0,1-13.46,0V303.82s0-.09,0-.13l-10.5-10.51a1.69,1.69,0,0,1,2.39-2.39l9.93,9.93a3.64,3.64,0,0,1,1.74-.46h6.32a3.6,3.6,0,0,1,1.73.46l9.94-9.93a1.69,1.69,0,1,1,2.39,2.39Z" transform="translate(-1067.62 -274.09)"/></svg>