<svg id="Capa_1" data-name="Capa 1" xmlns="http://www.w3.org/2000/svg" viewBox="0 0 52 63.4"><circle class="cls-1" cx="26" cy="46.2" r="5.2"/><path class="cls-1" d="M23.47,52.94h5.06A5.07,5.07,0,0,1,33.6,58V63.4a0,0,0,0,1,0,0H18.4a0,0,0,0,1,0,0V58A5.07,5.07,0,0,1,23.47,52.94Z"/><circle class="cls-1" cx="7.6" cy="46.2" r="5.2"/><path class="cls-1" d="M5.07,52.94h5.06A5.07,5.07,0,0,1,15.2,58V63.4a0,0,0,0,1,0,0H0a0,0,0,0,1,0,0V58A5.07,5.07,0,0,1,5.07,52.94Z"/><circle class="cls-1" cx="44.4" cy="46.2" r="5.2"/><path class="cls-1" d="M41.87,52.94h5.06A5.07,5.07,0,0,1,52,58V63.4a0,0,0,0,1,0,0H36.8a0,0,0,0,1,0,0V58a5.07,5.07,0,0,1,5.07-5.07Z"/><circle class="cls-1" cx="26" cy="5.2" r="5.2"/><path class="cls-1" d="M1132.89,376.1a1.9,1.9,0,0,0-2.7,0L1119,387.32a4.1,4.1,0,0,0-2-.53h-7.14a4,4,0,0,0-2,.53l-11.22-11.22a1.91,1.91,0,0,0-2.7,2.7l11.86,11.87c0,.05,0,.1,0,.15v11.89a7.6,7.6,0,1,0,15.2,0V390.82c0-.05,0-.1,0-.15l11.87-11.87A1.92,1.92,0,0,0,1132.89,376.1Z" transform="translate(-1087.44 -372.85)"/></svg>