<svg id="Capa_1" data-name="Capa 1" xmlns="http://www.w3.org/2000/svg" viewBox="0 0 417.31 350.68"><path class="cls-1" d="M521.84,542.34a109.51,109.51,0,0,1,16.79-24.63,112.23,112.23,0,0,1,45.89-30.22c-.94,4.42-8.58,37.87-38,50.37A58.67,58.67,0,0,1,521.84,542.34Z" transform="translate(-294.73 -239.32)"/><path class="cls-1" d="M578.88,524a109.07,109.07,0,0,1,7.92-28.73,112.17,112.17,0,0,1,33.63-43.44c.55,4.48,4.14,38.6-19.7,60A58.33,58.33,0,0,1,578.88,524Z" transform="translate(-294.73 -239.32)"/><path class="cls-1" d="M632.88,479.29A109.23,109.23,0,0,1,627.52,450a112.06,112.06,0,0,1,11.42-53.75c2.43,3.81,20.5,33,8.31,62.58A58.57,58.57,0,0,1,632.88,479.29Z" transform="translate(-294.73 -239.32)"/><path class="cls-1" d="M659,410a108.91,108.91,0,0,1-20.61-21.52,112.13,112.13,0,0,1-20.07-51.15c4.13,1.84,35.27,16.23,41.4,47.66A58.41,58.41,0,0,1,659,410Z" transform="translate(-294.73 -239.32)"/><path class="cls-1" d="M649.6,349.9A108.74,108.74,0,0,1,623,336.55a112,112,0,0,1-36.08-41.44c4.5.34,38.67,3.45,55,31A58.49,58.49,0,0,1,649.6,349.9Z" transform="translate(-294.73 -239.32)"/><path class="cls-1" d="M620.78,302.49a108.91,108.91,0,0,1-26.64-13.35,112.12,112.12,0,0,1-36.08-41.44c4.51.34,38.67,3.45,55,31A58.61,58.61,0,0,1,620.78,302.49Z" transform="translate(-294.73 -239.32)"/><path class="cls-1" d="M641.39,316.44a109.29,109.29,0,0,1-17.81-23.89A112.16,112.16,0,0,1,610,239.32c3.87,2.32,33,20.44,35.22,52.38A58.43,58.43,0,0,1,641.39,316.44Z" transform="translate(-294.73 -239.32)"/><path class="cls-1" d="M660.09,357.46a109.12,109.12,0,0,1-10-28.06,112.14,112.14,0,0,1,2.56-54.88c3,3.35,25.57,29.21,18.34,60.4A58.63,58.63,0,0,1,660.09,357.46Z" transform="translate(-294.73 -239.32)"/><path class="cls-1" d="M665.13,394.33a108.75,108.75,0,0,1,.23-29.8,112.14,112.14,0,0,1,21.27-50.66c1.69,4.19,14,36.22-3.55,63A58.45,58.45,0,0,1,665.13,394.33Z" transform="translate(-294.73 -239.32)"/><path class="cls-1" d="M662.17,428.14a109.18,109.18,0,0,1,10.47-27.9A112.07,112.07,0,0,1,710.05,360c.14,4.51.65,38.81-25,57.95A58.38,58.38,0,0,1,662.17,428.14Z" transform="translate(-294.73 -239.32)"/><path class="cls-1" d="M649,464.05a109.46,109.46,0,0,1,17-24.52,112.13,112.13,0,0,1,46.08-29.92c-1,4.41-8.82,37.81-38.38,50.12A58.32,58.32,0,0,1,649,464.05Z" transform="translate(-294.73 -239.32)"/><path class="cls-1" d="M623.71,498.92a109.18,109.18,0,0,1,21.56-20.56,112.06,112.06,0,0,1,51.2-20c-1.84,4.12-16.31,35.23-47.75,41.29A58.31,58.31,0,0,1,623.71,498.92Z" transform="translate(-294.73 -239.32)"/><path class="cls-1" d="M595.35,523.37a109.11,109.11,0,0,1,26.42-13.78,112.08,112.08,0,0,1,54.72-5c-2.91,3.46-25.43,29.33-57.32,26.45A58.54,58.54,0,0,1,595.35,523.37Z" transform="translate(-294.73 -239.32)"/><path class="cls-1" d="M558.26,534.74a109.25,109.25,0,0,1,29.47-4.42,112.18,112.18,0,0,1,53.36,13.11c-3.88,2.32-33.6,19.45-62.81,6.33A58.44,58.44,0,0,1,558.26,534.74Z" transform="translate(-294.73 -239.32)"/><path class="cls-1" d="M528.11,548.18a95.78,95.78,0,0,1,26.16.62,98.35,98.35,0,0,1,44.17,19.39c-3.7,1.41-32,11.75-55.28-4A51.22,51.22,0,0,1,528.11,548.18Z" transform="translate(-294.73 -239.32)"/><path class="cls-1" d="M508.54,563.6A72.82,72.82,0,0,1,528,568.08a75,75,0,0,1,30,21.27c-3,.49-25.68,3.85-40.63-11.49A39.12,39.12,0,0,1,508.54,563.6Z" transform="translate(-294.73 -239.32)"/><path class="cls-1" d="M484.94,542.34a109.51,109.51,0,0,0-16.79-24.63,112.23,112.23,0,0,0-45.89-30.22c.94,4.42,8.58,37.87,38.05,50.37A58.67,58.67,0,0,0,484.94,542.34Z" transform="translate(-294.73 -239.32)"/><path class="cls-1" d="M427.9,524A109.07,109.07,0,0,0,420,495.31a112.17,112.17,0,0,0-33.63-43.44c-.55,4.48-4.14,38.6,19.7,60A58.33,58.33,0,0,0,427.9,524Z" transform="translate(-294.73 -239.32)"/><path class="cls-1" d="M373.9,479.29A109.23,109.23,0,0,0,379.26,450a112.19,112.19,0,0,0-11.41-53.75c-2.44,3.81-20.51,33-8.32,62.58A58.57,58.57,0,0,0,373.9,479.29Z" transform="translate(-294.73 -239.32)"/><path class="cls-1" d="M347.75,410a108.91,108.91,0,0,0,20.61-21.52,112.13,112.13,0,0,0,20.07-51.15c-4.13,1.84-35.27,16.23-41.4,47.66A58.41,58.41,0,0,0,347.75,410Z" transform="translate(-294.73 -239.32)"/><path class="cls-1" d="M357.18,349.9a109,109,0,0,0,26.65-13.35,112.07,112.07,0,0,0,36.07-41.44c-4.5.34-38.67,3.45-55,31A58.49,58.49,0,0,0,357.18,349.9Z" transform="translate(-294.73 -239.32)"/><path class="cls-1" d="M386,302.49a108.91,108.91,0,0,0,26.64-13.35,112,112,0,0,0,36.08-41.44c-4.51.34-38.67,3.45-55,31A58.61,58.61,0,0,0,386,302.49Z" transform="translate(-294.73 -239.32)"/><path class="cls-1" d="M365.39,316.44a109.29,109.29,0,0,0,17.81-23.89,112.16,112.16,0,0,0,13.62-53.23c-3.87,2.32-33,20.44-35.22,52.38A58.43,58.43,0,0,0,365.39,316.44Z" transform="translate(-294.73 -239.32)"/><path class="cls-1" d="M346.69,357.46a109.12,109.12,0,0,0,10-28.06,112.14,112.14,0,0,0-2.56-54.88c-3,3.35-25.57,29.21-18.33,60.4A58.48,58.48,0,0,0,346.69,357.46Z" transform="translate(-294.73 -239.32)"/><path class="cls-1" d="M341.65,394.33a109.1,109.1,0,0,0-.22-29.8,112.24,112.24,0,0,0-21.28-50.66c-1.69,4.19-14,36.22,3.55,63A58.45,58.45,0,0,0,341.65,394.33Z" transform="translate(-294.73 -239.32)"/><path class="cls-1" d="M344.61,428.14a109.18,109.18,0,0,0-10.47-27.9A112.07,112.07,0,0,0,296.73,360c-.14,4.51-.65,38.81,25,57.95A58.38,58.38,0,0,0,344.61,428.14Z" transform="translate(-294.73 -239.32)"/><path class="cls-1" d="M357.76,464.05a109.46,109.46,0,0,0-16.95-24.52,112.13,112.13,0,0,0-46.08-29.92c1,4.41,8.82,37.81,38.38,50.12A58.32,58.32,0,0,0,357.76,464.05Z" transform="translate(-294.73 -239.32)"/><path class="cls-1" d="M383.07,498.92a109.18,109.18,0,0,0-21.56-20.56,112.06,112.06,0,0,0-51.2-20c1.84,4.12,16.31,35.23,47.75,41.29A58.31,58.31,0,0,0,383.07,498.92Z" transform="translate(-294.73 -239.32)"/><path class="cls-1" d="M411.43,523.37A109.11,109.11,0,0,0,385,509.59a112.08,112.08,0,0,0-54.72-5c2.91,3.46,25.43,29.33,57.32,26.45A58.54,58.54,0,0,0,411.43,523.37Z" transform="translate(-294.73 -239.32)"/><path class="cls-1" d="M448.52,534.74a109.25,109.25,0,0,0-29.47-4.42,112.1,112.1,0,0,0-53.35,13.11c3.87,2.32,33.59,19.45,62.8,6.33A58.34,58.34,0,0,0,448.52,534.74Z" transform="translate(-294.73 -239.32)"/><path class="cls-1" d="M478.68,548.18a95.77,95.77,0,0,0-26.16.62,98.35,98.35,0,0,0-44.18,19.39c3.7,1.41,32,11.75,55.28-4A51.39,51.39,0,0,0,478.68,548.18Z" transform="translate(-294.73 -239.32)"/><path class="cls-1" d="M498.24,563.6a72.82,72.82,0,0,0-19.42,4.48,75,75,0,0,0-30,21.27c3,.49,25.68,3.85,40.63-11.49A39.12,39.12,0,0,0,498.24,563.6Z" transform="translate(-294.73 -239.32)"/><path class="cls-1" d="M493.54,319.17a9.81,9.81,0,0,1,5.67-5.18,10.93,10.93,0,0,1,7.44,0,9.84,9.84,0,0,1,5.67,5.18l20.71,42a1.46,1.46,0,0,0,1.11.81l46.5,6.69a9.82,9.82,0,0,1,6.64,3.89,10.78,10.78,0,0,1,2.27,7.12,9.92,9.92,0,0,1-3.08,6.8L552.7,419.33a1.5,1.5,0,0,0-.42,1.3l8,46.52a10.13,10.13,0,0,1-.79,6.06,10.26,10.26,0,0,1-7.93,5.84,10,10,0,0,1-6.17-1.22l-41.74-21.66a1.48,1.48,0,0,0-1.36,0l-41.74,21.66a10,10,0,0,1-6.17,1.22,10.26,10.26,0,0,1-7.93-5.84,10.13,10.13,0,0,1-.79-6.06l8-46.52a1.5,1.5,0,0,0-.42-1.3l-33.77-32.81a9.92,9.92,0,0,1-3.08-6.8,10.78,10.78,0,0,1,2.27-7.12,9.82,9.82,0,0,1,6.64-3.89l46.5-6.69a1.46,1.46,0,0,0,1.11-.81Z" transform="translate(-294.73 -239.32)"/></svg>